<svg width="16" height="17" viewBox="0 0 16 17" fill="none" xmlns="http://www.w3.org/2000/svg">
<path fill-rule="evenodd" clip-rule="evenodd" d="M4.35916 2.38669C5.08416 1.30585 6.33666 0.166687 8.31749 0.166687C10.2983 0.166687 11.5508 1.30585 12.2758 2.38669C12.7547 3.11262 13.103 3.91666 13.305 4.76252L14.5842 11.3575C14.6543 11.7194 14.6436 12.0923 14.5527 12.4496C14.4619 12.8068 14.2931 13.1396 14.0586 13.424C13.824 13.7084 13.5295 13.9374 13.1961 14.0946C12.8627 14.2518 12.4986 14.3333 12.13 14.3334H4.50499C4.13637 14.3333 3.77231 14.2518 3.43889 14.0946C3.10547 13.9374 2.81095 13.7084 2.57641 13.424C2.34187 13.1396 2.17313 12.8068 2.08227 12.4496C1.9914 12.0923 1.98067 11.7194 2.05083 11.3575L3.32999 4.76252C3.53192 3.91637 3.88022 3.11288 4.35916 2.38669Z" fill="black"/>
<path fill-rule="evenodd" clip-rule="evenodd" d="M5.41284 15.1667C5.62284 15.5667 5.94451 15.9859 6.43201 16.3059C6.94034 16.6392 7.57868 16.8334 8.35701 16.8334C9.13451 16.8334 9.77368 16.6392 10.282 16.3059C10.7695 15.9859 11.0903 15.5675 11.3012 15.1667H5.41284Z" fill="black"/>
<path fill-rule="evenodd" clip-rule="evenodd" d="M12.7287 0.410859C12.5725 0.567132 12.4847 0.779055 12.4847 1.00003C12.4847 1.221 12.5725 1.43292 12.7287 1.58919C13.4171 2.27753 13.7804 2.95253 14.1762 4.53586C14.2312 4.74886 14.3682 4.93148 14.5573 5.0439C14.7464 5.15631 14.9722 5.1894 15.1856 5.13594C15.399 5.08248 15.5826 4.94682 15.6964 4.75854C15.8101 4.57025 15.8448 4.34462 15.7929 4.13086C15.3554 2.38086 14.8846 1.38919 13.9071 0.410859C13.7508 0.254633 13.5389 0.16687 13.3179 0.16687C13.0969 0.16687 12.885 0.254633 12.7287 0.410859ZM3.90706 0.410859C4.06329 0.567132 4.15105 0.779055 4.15105 1.00003C4.15105 1.221 4.06329 1.43292 3.90706 1.58919C3.21873 2.27753 2.85539 2.95253 2.45956 4.53586C2.40458 4.74886 2.26761 4.93148 2.07852 5.0439C1.88943 5.15631 1.66356 5.1894 1.45017 5.13594C1.23678 5.08248 1.05318 4.94682 0.939421 4.75854C0.825659 4.57025 0.79096 4.34462 0.842892 4.13086C1.28039 2.38086 1.75123 1.38919 2.72873 0.410859C2.885 0.254633 3.09692 0.16687 3.31789 0.16687C3.53886 0.16687 3.75079 0.254633 3.90706 0.410859Z" fill="black"/>
</svg>
