<svg width="19" height="18" viewBox="0 0 19 18" fill="none" xmlns="http://www.w3.org/2000/svg">
<path fill-rule="evenodd" clip-rule="evenodd" d="M10.9004 17.5001H3.40039C2.73735 17.5001 2.10146 17.2367 1.63262 16.7678C1.16378 16.299 0.900391 15.6631 0.900391 15.0001V3.33339C0.900391 2.67035 1.16378 2.03446 1.63262 1.56562C2.10146 1.09678 2.73735 0.833389 3.40039 0.833389H15.9004C16.5634 0.833389 17.1993 1.09678 17.6682 1.56562C18.137 2.03446 18.4004 2.67035 18.4004 3.33339V15.0001C18.4004 15.6631 18.137 16.299 17.6682 16.7678C17.1993 17.2367 16.5634 17.5001 15.9004 17.5001H10.9004ZM3.54206 15.8334C3.45039 15.5726 3.40039 15.2917 3.40039 15.0001V3.33339C3.40039 3.04172 3.45039 2.76089 3.54206 2.50006H3.40039C3.17938 2.50006 2.96742 2.58785 2.81114 2.74413C2.65485 2.90041 2.56706 3.11238 2.56706 3.33339V15.0001C2.56706 15.2211 2.65485 15.433 2.81114 15.5893C2.96742 15.7456 3.17938 15.8334 3.40039 15.8334H3.54206ZM6.73372 5.84589C6.7335 5.73645 6.75484 5.62805 6.79652 5.52686C6.8382 5.42567 6.89939 5.33368 6.97662 5.25614C7.05385 5.17861 7.14559 5.11704 7.24661 5.07496C7.34763 5.03288 7.45596 5.01111 7.56539 5.01089L14.2321 5.00006C14.4531 4.99961 14.6652 5.08699 14.8218 5.24296C14.9784 5.39892 15.0666 5.61071 15.0671 5.83172C15.0675 6.05274 14.9801 6.26487 14.8242 6.42147C14.6682 6.57806 14.4564 6.66628 14.2354 6.66672L7.56872 6.67756C7.45929 6.67777 7.35088 6.65644 7.24969 6.61476C7.14851 6.57308 7.05652 6.51188 6.97898 6.43466C6.90144 6.35743 6.83988 6.26569 6.79779 6.16467C6.75571 6.06364 6.73394 5.95532 6.73372 5.84589ZM6.73372 9.18922C6.7335 8.96835 6.82097 8.75643 6.97692 8.60002C7.13286 8.4436 7.34452 8.3555 7.56539 8.35506L14.2321 8.34422C14.4531 8.34378 14.6652 8.43115 14.8218 8.58712C14.9784 8.74309 15.0666 8.95488 15.0671 9.17589C15.0675 9.3969 14.9801 9.60904 14.8242 9.76563C14.6682 9.92223 14.4564 10.0104 14.2354 10.0109L7.56872 10.0217C7.45929 10.0219 7.35088 10.0006 7.24969 9.95893C7.14851 9.91725 7.05652 9.85605 6.97898 9.77882C6.90144 9.7016 6.83988 9.60985 6.79779 9.50883C6.75571 9.40781 6.73394 9.29866 6.73372 9.18922ZM6.73372 12.5226C6.7335 12.3017 6.82097 12.0898 6.97692 11.9333C7.13286 11.7769 7.34452 11.6888 7.56539 11.6884L14.2321 11.6776C14.4531 11.6771 14.6652 11.7645 14.8218 11.9205C14.9784 12.0764 15.0666 12.2882 15.0671 12.5092C15.0675 12.7302 14.9801 12.9424 14.8242 13.099C14.6682 13.2556 14.4564 13.3438 14.2354 13.3442L7.56872 13.3551C7.45929 13.3553 7.35088 13.3339 7.24969 13.2923C7.14851 13.2506 7.05652 13.1894 6.97898 13.1122C6.90144 13.0349 6.83988 12.9432 6.79779 12.8422C6.75571 12.7411 6.73394 12.632 6.73372 12.5226Z" fill="white"/>
</svg>
