<svg width="18" height="18" viewBox="0 0 18 18" fill="none" xmlns="http://www.w3.org/2000/svg">
<path fill-rule="evenodd" clip-rule="evenodd" d="M11.7537 17.5C12.7979 17.5 13.6937 17.445 14.4429 17.2792C15.2012 17.11 15.8579 16.8167 16.3712 16.3042C16.8837 15.7909 17.1771 15.1342 17.3462 14.3759C17.5129 13.6267 17.5671 12.7309 17.5671 11.6867V9.16671C17.5671 8.72468 17.3915 8.30076 17.0789 7.9882C16.7663 7.67564 16.3424 7.50004 15.9004 7.50004H9.23372C8.7917 7.50004 8.36777 7.67564 8.05521 7.9882C7.74265 8.30076 7.56706 8.72468 7.56706 9.16671V15.8334C7.56706 16.2754 7.74265 16.6993 8.05521 17.0119C8.36777 17.3244 8.7917 17.5 9.23372 17.5H11.7537ZM0.900391 11.6867C0.900391 12.7309 0.955391 13.6267 1.12206 14.3759C1.29039 15.1342 1.58372 15.7909 2.09706 16.3042C2.60956 16.8167 3.26622 17.11 4.02456 17.2792C4.09706 17.295 4.17039 17.31 4.24372 17.3242C5.14706 17.4992 5.90039 16.7342 5.90039 15.8134V9.16671C5.90039 8.72468 5.7248 8.30076 5.41224 7.9882C5.09967 7.67564 4.67575 7.50004 4.23372 7.50004H2.56706C2.12503 7.50004 1.70111 7.67564 1.38855 7.9882C1.07599 8.30076 0.900391 8.72468 0.900391 9.16671V11.6867ZM6.71372 0.833374C5.66956 0.833374 4.77372 0.888374 4.02456 1.05504C3.26622 1.22337 2.60956 1.51671 2.09622 2.03004C1.58372 2.54254 1.29039 3.19921 1.12122 3.95754C1.10789 4.02004 1.09456 4.08254 1.08289 4.14504C0.903724 5.06087 1.68289 5.83337 2.61622 5.83337H15.8804C16.8012 5.83337 17.5662 5.08004 17.3912 4.17671C17.3769 4.10345 17.3617 4.03039 17.3454 3.95754C17.1771 3.19921 16.8837 2.54254 16.3704 2.02921C15.8579 1.51671 15.2012 1.22337 14.4429 1.05421C13.6937 0.887541 12.7979 0.833374 11.7537 0.833374H6.71372Z" fill="white"/>
</svg>
