<svg width="18" height="17" viewBox="0 0 18 17" fill="none" xmlns="http://www.w3.org/2000/svg">
<path fill-rule="evenodd" clip-rule="evenodd" d="M1.54949 0.898874C2.01833 0.430033 2.65422 0.166641 3.31726 0.166641H11.2339C11.7865 0.166641 12.3164 0.386135 12.7071 0.776835C13.0978 1.16754 13.3173 1.69744 13.3173 2.24997V4.55581C13.1275 4.66518 12.9612 4.81086 12.8279 4.98454C12.6945 5.15821 12.5966 5.35647 12.5399 5.56798C12.4832 5.77949 12.4687 6.0001 12.4972 6.21722C12.5258 6.43433 12.5969 6.64368 12.7064 6.83331H9.98393C9.5419 6.83331 9.11798 7.0089 8.80542 7.32146C8.49286 7.63402 8.31726 8.05795 8.31726 8.49997C8.31726 8.942 8.49286 9.36592 8.80542 9.67848C9.11798 9.99105 9.5419 10.1666 9.98393 10.1666H12.7064C12.4857 10.5497 12.426 11.0048 12.5406 11.4318C12.6551 11.8588 12.9344 12.2229 13.3173 12.4441V14.75C13.3173 15.3025 13.0978 15.8324 12.7071 16.2231C12.3164 16.6138 11.7865 16.8333 11.2339 16.8333H3.31726C2.65422 16.8333 2.01833 16.5699 1.54949 16.1011C1.08065 15.6322 0.817261 14.9963 0.817261 14.3333V2.66664C0.817261 2.0036 1.08065 1.36772 1.54949 0.898874ZM13.3277 10.9969C13.3258 10.7784 13.4098 10.5679 13.5616 10.4107L14.6391 9.3332H9.98409C9.76308 9.3332 9.55112 9.24541 9.39483 9.08912C9.23855 8.93284 9.15076 8.72088 9.15076 8.49987C9.15076 8.27886 9.23855 8.06689 9.39483 7.91061C9.55112 7.75433 9.76308 7.66654 9.98409 7.66654H14.6391L13.5616 6.58904C13.482 6.51216 13.4185 6.42021 13.3748 6.31854C13.3312 6.21687 13.3082 6.10752 13.3072 5.99687C13.3063 5.88622 13.3273 5.77649 13.3692 5.67407C13.4111 5.57166 13.473 5.47862 13.5513 5.40037C13.6295 5.32213 13.7225 5.26025 13.825 5.21835C13.9274 5.17645 14.0371 5.15537 14.1478 5.15633C14.2584 5.15729 14.3678 5.18028 14.4694 5.22395C14.5711 5.26763 14.6631 5.33111 14.7399 5.4107L17.1674 7.8382C17.18 7.85063 17.1922 7.86341 17.2041 7.87654C17.2924 7.95458 17.3632 8.05051 17.4117 8.15798C17.4601 8.26544 17.4852 8.38198 17.4852 8.49987C17.4852 8.61776 17.4601 8.7343 17.4117 8.84176C17.3632 8.94923 17.2924 9.04516 17.2041 9.1232L17.1674 9.16154L14.7399 11.589C14.5828 11.7408 14.3723 11.8248 14.1538 11.8229C13.9353 11.821 13.7262 11.7334 13.5717 11.5789C13.4172 11.4244 13.3296 11.2154 13.3277 10.9969Z" fill="white"/>
</svg>
