<svg width="18" height="18" viewBox="0 0 18 18" fill="none" xmlns="http://www.w3.org/2000/svg">
<path fill-rule="evenodd" clip-rule="evenodd" d="M5.06706 5.83341C4.84604 5.83341 4.63408 5.92121 4.4778 6.07749C4.32152 6.23377 4.23372 6.44573 4.23372 6.66675C4.23372 6.88776 4.32152 7.09972 4.4778 7.256C4.63408 7.41228 4.84604 7.50008 5.06706 7.50008H13.4004C13.6214 7.50008 13.8334 7.41228 13.9896 7.256C14.1459 7.09972 14.2337 6.88776 14.2337 6.66675C14.2337 6.44573 14.1459 6.23377 13.9896 6.07749C13.8334 5.92121 13.6214 5.83341 13.4004 5.83341H5.06706ZM5.06706 8.33341C4.84604 8.33341 4.63408 8.42121 4.4778 8.57749C4.32152 8.73377 4.23372 8.94573 4.23372 9.16675C4.23372 9.38776 4.32152 9.59972 4.4778 9.756C4.63408 9.91228 4.84604 10.0001 5.06706 10.0001H10.0671C10.2881 10.0001 10.5 9.91228 10.6563 9.756C10.8126 9.59972 10.9004 9.38776 10.9004 9.16675C10.9004 8.94573 10.8126 8.73377 10.6563 8.57749C10.5 8.42121 10.2881 8.33341 10.0671 8.33341H5.06706ZM5.01206 0.833412H13.4554C14.1937 0.833412 14.8304 0.833412 15.3404 0.901746C15.8862 0.975079 16.4104 1.14091 16.8346 1.56591C17.2596 1.99091 17.4254 2.51425 17.4987 3.06008C17.5671 3.57008 17.5671 4.20675 17.5671 4.94508V10.0551C17.5671 10.7934 17.5671 11.4301 17.4987 11.9401C17.4254 12.4859 17.2596 13.0101 16.8346 13.4342C16.4096 13.8592 15.8862 14.0251 15.3404 14.0984C14.8304 14.1667 14.1937 14.1667 13.4554 14.1667H11.7787L10.0537 16.9267C9.96686 17.0659 9.84601 17.1806 9.70255 17.2602C9.5591 17.3398 9.39776 17.3815 9.23372 17.3815C9.06969 17.3815 8.90835 17.3398 8.76489 17.2602C8.62144 17.1806 8.50059 17.0659 8.41372 16.9267L6.68872 14.1667H5.01206C4.27372 14.1667 3.63706 14.1667 3.12706 14.0984C2.58122 14.0251 2.05706 13.8592 1.63289 13.4342C1.20789 13.0092 1.04206 12.4859 0.968724 11.9401C0.900391 11.4301 0.900391 10.7934 0.900391 10.0551V4.94508C0.900391 4.20675 0.900391 3.57008 0.968724 3.06008C1.04206 2.51425 1.20789 1.99008 1.63289 1.56591C2.05789 1.14091 2.58122 0.975079 3.12706 0.901746C3.63706 0.833412 4.27372 0.833412 5.01206 0.833412Z" fill="white"/>
</svg>
