<svg width="18" height="18" viewBox="0 0 18 18" fill="none" xmlns="http://www.w3.org/2000/svg">
<path fill-rule="evenodd" clip-rule="evenodd" d="M0.900391 9.16671C0.900391 4.56421 4.63122 0.833374 9.23372 0.833374C13.8362 0.833374 17.5671 4.56421 17.5671 9.16671C17.5671 13.7692 13.8362 17.5 9.23372 17.5C4.63122 17.5 0.900391 13.7692 0.900391 9.16671ZM5.90039 7.50004C5.90039 7.27903 5.98819 7.06707 6.14447 6.91079C6.30075 6.7545 6.51271 6.66671 6.73372 6.66671H11.7337C11.9547 6.66671 12.1667 6.7545 12.323 6.91079C12.4793 7.06707 12.5671 7.27903 12.5671 7.50004C12.5671 7.72105 12.4793 7.93302 12.323 8.0893C12.1667 8.24558 11.9547 8.33337 11.7337 8.33337H6.73372C6.51271 8.33337 6.30075 8.24558 6.14447 8.0893C5.98819 7.93302 5.90039 7.72105 5.90039 7.50004ZM5.90039 10.8334C5.90039 10.6124 5.98819 10.4004 6.14447 10.2441C6.30075 10.0878 6.51271 10 6.73372 10H11.7337C11.9547 10 12.1667 10.0878 12.323 10.2441C12.4793 10.4004 12.5671 10.6124 12.5671 10.8334C12.5671 11.0544 12.4793 11.2663 12.323 11.4226C12.1667 11.5789 11.9547 11.6667 11.7337 11.6667H6.73372C6.51271 11.6667 6.30075 11.5789 6.14447 11.4226C5.98819 11.2663 5.90039 11.0544 5.90039 10.8334Z" fill="white"/>
</svg>
