<svg width="19" height="18" viewBox="0 0 19 18" fill="none" xmlns="http://www.w3.org/2000/svg">
<path fill-rule="evenodd" clip-rule="evenodd" d="M1.63262 1.56558C2.10146 1.09674 2.73735 0.833348 3.40039 0.833348H13.4004C14.0634 0.833348 14.6993 1.09674 15.1682 1.56558C15.637 2.03442 15.9004 2.67031 15.9004 3.33335V15C15.9004 15.6631 15.637 16.2989 15.1682 16.7678C14.6993 17.2366 14.0634 17.5 13.4004 17.5H3.40039C2.73735 17.5 2.10146 17.2366 1.63262 16.7678C1.16378 16.2989 0.900391 15.6631 0.900391 15V3.33335C0.900391 2.67031 1.16378 2.03442 1.63262 1.56558ZM6.04337 6.80966C6.66849 6.18454 7.51634 5.83335 8.40039 5.83335C9.28445 5.83335 10.1323 6.18454 10.7574 6.80966C11.3825 7.43478 11.7337 8.28263 11.7337 9.16668C11.7337 10.0507 11.3825 10.8986 10.7574 11.5237C10.1323 12.1488 9.28445 12.5 8.40039 12.5C7.51634 12.5 6.66849 12.1488 6.04337 11.5237C5.41825 10.8986 5.06706 10.0507 5.06706 9.16668C5.06706 8.28263 5.41825 7.43478 6.04337 6.80966ZM8.40039 15C7.08706 15 6.51122 15.2225 6.18872 15.5683C6.11409 15.6484 6.02442 15.713 5.92483 15.7584C5.82524 15.8038 5.71769 15.8291 5.60831 15.8329C5.49893 15.8368 5.38987 15.819 5.28735 15.7807C5.18483 15.7424 5.09086 15.6842 5.01081 15.6096C4.93076 15.535 4.86619 15.4453 4.82079 15.3457C4.77539 15.2461 4.75006 15.1386 4.74623 15.0292C4.7424 14.9198 4.76015 14.8107 4.79847 14.7082C4.83679 14.6057 4.89492 14.5117 4.96956 14.4317C5.79372 13.5475 6.99956 13.3333 8.40039 13.3333C9.81039 13.3333 11.0346 13.5333 11.8621 14.4375C12.0023 14.6018 12.0733 14.8141 12.0601 15.0297C12.0469 15.2453 11.9505 15.4473 11.7912 15.5932C11.6319 15.7391 11.4222 15.8174 11.2063 15.8117C10.9903 15.806 10.7851 15.7166 10.6337 15.5625C10.3171 15.2175 9.74622 15 8.40039 15ZM7.2218 7.98817C6.90924 8.30073 6.73364 8.72465 6.73364 9.16668C6.73364 9.60871 6.90924 10.0326 7.2218 10.3452C7.53436 10.6578 7.95828 10.8333 8.40031 10.8333C8.84234 10.8333 9.26626 10.6578 9.57882 10.3452C9.89138 10.0326 10.067 9.60871 10.067 9.16668C10.067 8.72465 9.89138 8.30073 9.57882 7.98817C9.26626 7.67561 8.84234 7.50001 8.40031 7.50001C7.95828 7.50001 7.53436 7.67561 7.2218 7.98817ZM15.9003 17.5H15.6053C15.9604 17.1875 16.2447 16.8029 16.4393 16.3718C16.6338 15.9407 16.7342 15.473 16.7336 15V3.33335C16.7342 2.86036 16.6338 2.39269 16.4393 1.96158C16.2447 1.53047 15.9604 1.14583 15.6053 0.833348H15.9003C16.5634 0.833348 17.1992 1.09674 17.6681 1.56558C18.1369 2.03442 18.4003 2.67031 18.4003 3.33335V15C18.4003 15.6631 18.1369 16.2989 17.6681 16.7678C17.1992 17.2366 16.5634 17.5 15.9003 17.5Z" fill="white"/>
</svg>
